<svg width="499" height="673" viewBox="0 0 499 673" fill="none" xmlns="http://www.w3.org/2000/svg">
<path fill-rule="evenodd" clip-rule="evenodd" d="M265.016 263.445C277.8 264.076 297.706 269.559 298.701 273.063C300.255 278.535 296.916 299.048 302.501 310.098C304.882 314.808 313.923 314.386 317.426 315.92C329.147 321.052 363.847 330.786 371.001 343.043C373.868 347.954 391.482 408.884 400.842 439.968C401.897 443.473 403.089 446.714 404.385 449.716L404.861 447.383C408.677 428.596 410.585 417.222 410.585 413.263C410.585 407.076 405.652 380.973 410.585 374.334C415.469 367.763 427.239 362.389 432.535 362.282L432.693 362.281C436.17 362.281 439.187 361.194 441.744 359.019L445.493 357.133C464.564 347.559 475.706 342.308 478.92 341.379C484.047 339.896 492.774 343.055 488.41 347.798C485.502 350.96 478.192 356.554 466.482 364.579L462.066 368.089L462.6 368.368C468.306 371.373 471.662 373.903 472.666 375.956C473.701 378.073 473.204 380.578 471.176 383.469L471.483 383.769C474.049 386.287 475.331 387.976 475.331 388.837V393.038C477.883 396.777 478.521 399.895 477.245 402.392C475.969 404.889 473.946 407.053 471.176 408.884C469.134 414.255 466.704 418.079 463.883 420.353C461.062 422.628 456.188 424.521 449.259 426.034L442.989 441.031L437.909 462.101L435.349 485.611L436.092 486.15C439.537 488.66 441.744 490.521 441.744 492.444C441.744 495.44 427.843 565.891 406.216 569.044C401.538 569.726 377.281 566.381 369.316 559.9L369.434 560.6C371.308 571.923 370.911 577.803 368.244 578.241C335.469 583.616 242.384 585.277 88.9902 583.223C88.0775 501.778 92.2042 447.536 101.37 420.499C124.813 351.349 150.66 327.731 159.702 325.708C167.623 323.936 195.089 313 202.767 310.098C207.779 308.203 208.852 302.523 214.564 302.523L215.025 302.525C220.549 302.58 225.447 303.569 228.198 300.727C235.42 293.269 233.401 282.947 236.397 273.063C238.048 267.617 249.328 262.67 265.016 263.445Z" fill="white"/>
<path fill-rule="evenodd" clip-rule="evenodd" d="M229.893 282.972C230.644 281.484 232.636 281.677 233.95 282.352C237.892 285.235 233.767 290.823 232.677 294.341C229.872 301.165 225 307.834 218.274 311.023C218.832 317.807 219.463 324.576 219.696 331.38C228.295 342.05 242.793 345.945 255.663 348.94C275.876 354.532 298.688 343.074 305.511 323.087C297.746 318.673 295.233 307.118 297.55 299.056C297.752 298.49 298.629 298.239 298.941 298.872C301.067 303.246 300.784 308.583 303.201 312.905C326.401 315.127 356.343 323.885 371.542 342.654C378.278 352.044 380.946 364.257 384.264 375.141C391.342 397.577 396.982 420.468 403.924 442.928L404.743 438.678C406.985 426.972 409.023 415.107 407.509 403.201L407.481 402.632C406.987 393.159 404.023 375.556 411.367 369.16C418.009 364.082 427.632 360.002 435.968 362.343C450.802 355.739 463.605 344.619 479.404 340.288C484.266 339.287 491.261 340.472 490.112 347.071C486.927 358.612 473.589 363.091 464.47 369.043C470.315 370.627 477.441 377.738 472.874 383.938C472.835 384.048 472.8 384.131 472.764 384.197C476.468 385.839 476.986 389.966 476.078 393.504C475.985 394.439 475.74 393.636 476.289 394.483C480.467 398.426 478.62 409.415 472.326 409.787C472.738 414.994 469.394 420.051 465.159 422.891C460.595 425.951 453.995 426.083 450.217 430.271C441.345 445.921 438.284 464.396 437.317 482.317C443.165 484.507 448.413 491.056 443.099 496.612C442.994 496.624 442.889 496.636 442.783 496.645C439.703 504.868 438.514 513.634 436.885 522.222C434.379 536.875 427.847 550.329 419.507 562.537C409.862 578.695 383.928 576.134 370.862 565.705C370.914 568.441 371.365 571.161 370.489 573.805C369.196 576.658 366.044 575.425 365.732 572.615C358.825 576.501 357.199 563.675 364.876 565.709C364.286 556.437 363.943 547.151 363.666 537.863C354.973 540.678 354.598 526.251 363.49 529.136L363.479 525.148C363.414 494.565 363.752 463.879 367.786 433.537C368.159 431.268 368.791 429.073 369.159 426.816C369.199 426.583 369.563 426.649 369.565 426.873C370.189 469.351 367.414 511.921 370.309 554.414C372.72 555.149 373.681 557.916 375.466 559.528C379.428 563.188 384.824 564.97 390.1 565.59C404.876 567.663 411.255 563.148 417.835 550.3C414.868 552.285 410.857 548.781 412.666 545.641L412.723 545.546C414.601 542.219 419.907 544.213 419.235 547.939C425.85 537.341 429.313 525.391 431.87 513.266L432.216 511.817C433.459 506.67 435.072 500.771 438.057 496.114C419.853 491.472 402.046 477.332 399.197 457.93C394.576 472.457 388.314 486.657 382.346 500.785C380.503 505.697 379.735 510.978 377.094 515.535C376.479 516.589 374.921 516.317 374.574 515.206C372.198 504.579 379.398 494.471 383.136 484.905C386.188 479.499 394.95 454.81 400.382 454.751C394.278 427.985 386.136 401.42 378.383 374.988C370.885 339.297 355.606 332.415 323.238 321.178C329.077 350.941 355.732 379.751 341.548 410.968L341.203 411.778C339.752 415.22 338.547 418.688 339.56 422.466C340.543 426.131 342.781 429.314 344.572 432.611C354.581 451.234 347.691 472.984 343.821 492.378C338.932 515.121 334.103 537.886 329.05 560.595C328.054 565.125 327.408 569.792 325.903 574.183C325.127 576.448 321.252 576.233 321.502 573.59C321.98 568.462 323.42 563.462 324.474 558.427C330.766 525.826 339.279 493.609 344.693 460.866C348.175 436.627 334.466 432.903 334.978 417.241C336.841 409.232 341.773 402.084 341.49 393.548C342.587 367.42 323.562 345.864 321.213 320.453L317.066 318.973C314.994 318.231 312.923 317.482 310.86 316.716C321.723 392.72 318.424 470.383 312.994 546.762C311.884 550.286 312.94 574.906 308.288 572.721C308.054 574.097 307.323 575.449 305.734 575.442C291.31 575.574 276.881 575.802 262.456 575.975C255.518 575.335 245.981 577.985 240.08 573.98C233.266 572.035 232.482 553.575 230.661 546.995L229.951 542.21C218.372 464.018 208.011 384.214 216.334 305.248C204.755 305.693 202.365 318.195 201.506 327.297C199.359 347.387 186.383 364.689 185.761 385.009C185.708 389.939 186.638 394.715 188.608 399.242C193.835 410.332 202.874 423.154 196.118 435.54C188.128 445.182 188.82 447.72 191.752 459.636C200.001 499.029 213.699 536.9 226.731 574.881C223.899 589.644 206.869 534.84 205.267 530.708C197.728 534.5 193.61 521.915 202.257 521.019C196.703 502.421 191.592 483.685 187.336 464.742L187.224 464.208C185.344 455.456 181.646 445.208 187.89 437.444C203.989 421.157 177.254 402.953 180.626 383.223C177.714 385.383 173.306 383.11 173.372 379.482C173.24 375.398 178.725 373.305 181.364 376.422C184.078 360.414 193.518 346.44 196.375 330.479L196.504 329.729C197.472 324.089 197.745 318.153 200.515 313.012C196.744 315.462 192.73 317.442 188.6 319.189C195.984 325.358 181.686 330.989 182.869 321.459C142.378 333.177 133.226 349.52 118.36 387.051C121.137 384.352 125.894 387.845 124.232 391.287C122.905 394.913 117.12 393.853 117.122 389.988L116.445 391.604C107.43 413.168 99.2249 435.255 95.1015 458.333C103.19 457.19 101.131 470.122 93.8021 466.476C90.8611 487 90.8145 507.814 91.1739 528.503C97.9965 524.924 98.2019 537.086 91.2398 533.618C91.4943 550.573 91.8673 567.527 92.1482 584.482C92.2052 588.09 86.6408 588.073 86.553 584.482C85.9031 558.43 84.7187 532.332 85.2817 506.273C84.752 461.043 97.7495 417.45 117.115 376.934C134.251 330.283 157.92 324.977 201.467 311.414C205.487 305.444 214.075 299.799 221.081 303.547C225.002 297.217 226.993 289.716 229.893 282.972ZM155.284 445.562C155.446 444.987 156.267 445.131 156.293 445.698C156.657 453.016 156.332 460.382 155.832 467.732C155.529 472.218 155.156 476.7 154.84 481.157C154.002 492.913 153.326 504.683 152.813 516.462C152.993 516.387 153.177 516.321 153.37 516.269C154.257 516.027 155.144 516.027 156.03 516.269C156.82 516.489 157.511 516.875 158.107 517.433L158.233 517.555C158.72 518.007 159.066 518.543 159.268 519.162C159.556 519.712 159.701 520.301 159.701 520.931L159.698 521.089C159.694 521.993 159.47 522.831 159.014 523.613C158.571 524.364 157.974 524.961 157.223 525.408C156.442 525.861 155.604 526.085 154.7 526.089C154.603 526.098 154.506 526.107 154.41 526.111C153.738 526.137 153.111 525.997 152.532 525.694L152.444 525.668C152.225 531.643 152.045 537.622 151.913 543.601C151.795 548.812 151.637 554.023 151.532 559.234L151.483 561.841L151.387 567.602C151.356 569.971 151.371 572.239 150.566 574.474L150.47 574.731C149.89 576.224 149.439 578.3 147.889 579.13C146.652 579.793 144.984 579.547 144.273 578.256C143.676 577.177 144.194 575.622 145.076 574.893C145.059 574.845 145.032 574.802 145.01 574.753C144.874 574.358 144.668 573.985 144.545 573.585C144.159 572.321 144.264 570.973 144.26 569.66C144.26 567.343 144.339 565.025 144.4 562.711C144.537 557.785 144.695 552.864 144.887 547.943C145.539 531.434 146.768 514.925 148.174 498.463L148.652 492.906C149.288 485.517 149.946 478.12 150.878 470.77C150.921 470.419 150.965 470.067 151.014 469.716C150.513 469.466 150.048 469.119 149.679 468.733C148.201 467.18 147.304 464.858 146.463 462.858L146.27 462.402C145.357 460.269 144.515 458.109 144.08 455.817L144.039 455.606C143.84 454.63 143.449 452.901 144.484 452.428C145.024 452.182 145.365 452.358 145.541 452.898C145.564 452.968 145.545 453.047 145.506 453.108C145.932 453.762 146.599 454.373 147.02 454.979L148.462 457.041L149.175 458.078C150.079 459.408 151.044 460.681 152.041 461.937C152.826 456.423 153.787 450.931 155.284 445.562ZM214.413 568.436C216.216 567.022 219.152 567.79 219.152 570.398C219.152 573.019 216.212 573.774 214.413 572.36L214.323 572.294L214.237 572.224C213.257 571.458 213.224 569.465 214.163 568.634L214.237 568.572C214.294 568.523 214.351 568.48 214.413 568.436ZM135.842 563.34L135.997 563.343C136.813 563.343 137.572 563.549 138.279 563.963C138.586 564.195 138.889 564.432 139.196 564.669C139.757 565.231 140.144 565.899 140.359 566.667L140.521 567.869C140.543 568.493 140.416 569.072 140.13 569.613C139.946 570.174 139.635 570.661 139.196 571.07C138.783 571.513 138.301 571.825 137.739 572.005C137.244 572.266 136.716 572.399 136.152 572.399L135.997 572.396C135.176 572.396 134.417 572.19 133.71 571.776C133.403 571.544 133.1 571.307 132.793 571.07C132.236 570.508 131.845 569.84 131.631 569.072C131.578 568.673 131.525 568.269 131.468 567.869C131.446 567.246 131.578 566.667 131.858 566.126C132.043 565.564 132.354 565.078 132.793 564.669C133.206 564.226 133.688 563.914 134.25 563.734C134.745 563.473 135.277 563.34 135.842 563.34ZM341.267 554.993L342.417 555.147C343.518 555.397 344.405 556.21 344.997 557.136C345.313 557.632 345.484 558.168 345.51 558.743C345.638 559.313 345.611 559.888 345.431 560.464C345.3 561.025 345.041 561.517 344.659 561.934C344.528 562.141 344.374 562.329 344.199 562.496C343.838 563.098 343.295 563.492 342.733 563.897C342.259 564.199 341.745 564.362 341.192 564.388C340.828 564.485 340.459 564.485 340.091 564.388C339.542 564.362 339.029 564.199 338.555 563.897C338.274 563.681 337.994 563.462 337.717 563.247C337.471 562.961 337.243 562.667 337.028 562.36C336.883 562.022 336.742 561.688 336.602 561.354C336.343 560.551 336.47 559.84 336.611 559.037C336.633 558.901 336.668 558.778 336.717 558.646L336.811 558.391C337.064 557.724 337.199 557.497 337.646 556.916L337.817 556.688C337.902 556.574 337.99 556.463 338.09 556.363C338.37 556.073 338.77 555.832 339.086 555.582C339.762 555.191 340.49 554.998 341.267 554.993ZM192.276 552.182L192.422 552.184C193.059 552.188 193.656 552.346 194.208 552.667L194.928 553.224C195.367 553.668 195.67 554.185 195.841 554.788C195.88 555.103 195.925 555.419 195.968 555.731C195.986 556.218 195.885 556.674 195.661 557.101C195.521 557.54 195.275 557.917 194.928 558.242C194.608 558.585 194.226 558.83 193.787 558.975C193.404 559.175 192.992 559.28 192.554 559.281L192.422 559.278C191.782 559.278 191.185 559.116 190.632 558.795L189.912 558.242C189.473 557.799 189.17 557.276 188.999 556.674C188.96 556.359 188.916 556.047 188.872 555.731C188.855 555.244 188.955 554.788 189.179 554.366C189.324 553.927 189.565 553.545 189.912 553.224C190.232 552.877 190.614 552.632 191.053 552.491C191.436 552.29 191.841 552.188 192.276 552.182ZM163.314 550.731C164.231 550.722 165.162 550.981 165.912 551.512C166.641 552.03 167.193 552.588 167.549 553.426C167.646 553.655 167.742 553.878 167.826 554.107C168.203 555.112 168.273 556.122 167.751 557.105C167.246 558.058 166.158 558.475 165.183 558.76C164.359 559.006 163.424 559.045 162.603 558.751C162.195 558.606 161.796 558.453 161.427 558.229C160.738 557.803 160.365 557.298 159.905 556.674C159.545 556.06 159.365 555.392 159.365 554.682C159.365 553.966 159.545 553.303 159.905 552.684C160.611 551.477 161.919 550.739 163.314 550.731ZM116.798 551.578C117.956 551.578 118.974 552.114 119.672 553.017C120.378 553.935 120.637 555.077 120.326 556.214C119.997 557.417 119.001 558.47 117.767 558.773C116.855 558.997 116.109 558.988 115.2 558.834C114.432 558.703 113.845 558.246 113.256 557.772C112.585 557.223 112.378 556.223 112.488 555.415C112.593 554.607 112.967 554.08 113.533 553.601L113.537 553.589L113.326 553.751C113.406 553.681 113.484 553.606 113.564 553.532C113.59 553.488 113.612 553.439 113.634 553.391C113.958 552.838 114.397 552.403 114.946 552.078C115.521 551.745 116.135 551.578 116.798 551.578ZM386.941 538.281C387.577 538.109 388.218 538.109 388.854 538.281C389.324 538.39 389.732 538.605 390.079 538.925C390.431 539.155 390.718 539.448 390.935 539.812L391.005 539.936C391.505 540.787 391.584 541.761 391.369 542.71C391.102 543.882 390.022 544.949 388.854 545.225L388.815 545.233L388.776 545.243C388.302 545.392 387.823 545.414 387.349 545.305C386.871 545.283 386.427 545.142 386.02 544.879C385.502 544.545 385.068 544.115 384.734 543.597C384.47 543.184 384.33 542.741 384.308 542.262C384.225 541.946 384.225 541.63 384.308 541.314C384.33 540.835 384.47 540.392 384.734 539.98L385.295 539.255L385.353 539.207C385.8 538.759 386.331 538.451 386.941 538.281ZM342.759 515.048C348.512 515.048 348.503 523.978 342.759 523.978C337.006 523.978 337.015 515.048 342.759 515.048ZM132.126 513.92C132.732 513.784 133.337 513.81 133.939 513.999C134.303 514.153 134.663 514.306 135.023 514.455L135.944 515.167C136.115 515.311 136.199 515.47 136.357 515.676L136.554 515.934C136.84 516.317 136.846 516.397 137.16 517.212C137.37 517.994 137.37 518.775 137.16 519.557C137.058 519.934 136.905 520.29 136.708 520.619C136.527 520.935 136.311 521.213 136.068 521.468L135.944 521.594C135.532 522.037 135.045 522.349 134.483 522.533C134.127 522.74 133.746 522.84 133.337 522.84C132.732 522.977 132.126 522.95 131.525 522.761C131.161 522.608 130.801 522.454 130.441 522.305L129.52 521.594L128.809 520.672L128.582 520.131L128.352 519.587L128.19 518.38C128.168 517.752 128.295 517.173 128.58 516.629C128.69 516.246 128.883 515.909 129.164 515.627C129.366 515.285 129.638 515.013 129.98 514.811C130.261 514.53 130.599 514.337 130.981 514.227C131.336 514.021 131.718 513.92 132.126 513.92ZM416.676 507.541C417.155 507.524 417.603 507.624 418.015 507.844C418.16 507.892 418.301 507.953 418.436 508.024C418.967 508.335 419.389 508.757 419.7 509.284C419.955 509.688 420.095 510.123 420.117 510.592C420.213 511.015 420.204 511.442 420.089 511.866L420.051 511.993C419.955 512.34 419.81 512.66 419.617 512.954C419.599 512.989 419.577 513.024 419.551 513.055C419.257 513.521 418.867 513.902 418.384 514.188C417.848 514.495 417.274 514.653 416.65 514.658C415.409 514.658 414.338 513.986 413.684 512.954C413.592 512.809 413.539 512.625 413.474 512.475C413.416 512.335 413.324 512.155 413.275 511.993C413.109 511.369 413.109 510.746 413.275 510.123C413.385 509.666 413.592 509.267 413.903 508.928C414.153 508.547 414.482 508.244 414.891 508.024C415.397 507.728 415.941 507.571 416.519 507.545L416.676 507.541ZM173.772 503.173C174.379 503.007 174.983 502.994 175.587 503.135L175.738 503.173C176.22 503.287 176.638 503.507 176.997 503.832C177.396 504.095 177.717 504.442 177.949 504.872C178.283 505.447 178.45 506.07 178.454 506.737C178.45 507.405 178.283 508.028 177.949 508.603C177.62 509.161 177.177 509.6 176.62 509.929L176.137 510.162C175.734 510.417 175.304 510.553 174.838 510.574C174.527 510.658 174.215 510.658 173.908 510.574C173.592 510.574 173.298 510.496 173.026 510.338C172.728 510.254 172.473 510.104 172.253 509.885C171.871 509.639 171.573 509.315 171.354 508.906L170.998 508.067L170.876 507.137L170.998 506.211L171.192 505.754C171.367 505.126 171.683 504.582 172.143 504.121C172.604 503.664 173.148 503.348 173.772 503.173ZM391.4 495.767C392.04 495.565 392.677 495.538 393.313 495.679C393.743 495.679 394.147 495.789 394.52 496.008C394.928 496.122 395.279 496.324 395.578 496.623C396.099 496.961 396.508 497.408 396.811 497.966L397.293 499.112C397.583 499.854 397.477 500.947 397.302 501.694C397.157 502.308 396.877 502.844 396.46 503.3C396.249 503.656 395.968 503.937 395.612 504.148C395.206 504.518 394.737 504.781 394.206 504.937L394.059 504.977L394.007 504.99C393.997 504.995 393.989 504.995 393.98 504.995C393.976 504.999 393.967 504.999 393.962 504.999C393.752 505.052 393.537 505.082 393.313 505.091C392.677 505.232 392.04 505.206 391.4 505.004C391.022 504.845 390.641 504.683 390.259 504.521C389.934 504.275 389.613 504.024 389.289 503.774C389.039 503.45 388.789 503.124 388.539 502.804C388.187 502.256 387.999 501.658 387.973 501.021C387.858 500.596 387.858 500.175 387.973 499.748C387.973 499.314 388.082 498.915 388.297 498.541C388.49 497.944 388.819 497.431 389.289 496.996C389.613 496.746 389.934 496.495 390.259 496.249C390.641 496.087 391.022 495.925 391.4 495.767ZM111.51 480.05C112.172 479.87 112.835 479.87 113.498 480.05L114.388 480.423C114.827 480.661 115.174 480.981 115.437 481.389C115.771 481.749 115.994 482.175 116.108 482.662C116.368 483.33 116.337 484.388 116.131 485.068C115.898 485.841 115.538 486.455 114.981 487.035C114.055 487.992 112.633 488.269 111.374 487.979C111.027 487.9 110.697 487.746 110.399 487.557C109.447 486.969 108.807 485.942 108.811 484.805C108.811 484.682 108.82 484.559 108.837 484.436C108.776 484.186 108.753 483.927 108.763 483.654L108.894 482.662L108.903 482.636C109.079 482.008 109.395 481.464 109.855 481.003C110.281 480.582 110.777 480.276 111.344 480.093L111.488 480.05H111.51ZM442.651 381.471C441.453 371.639 436.945 361.061 423.198 366.834L422.177 367.217C418.775 368.506 414.811 370.198 412.741 373.174C411.315 375.224 411.797 379.197 411.6 381.59C410.703 389.369 411.184 397.137 412.118 404.883C413.324 423.04 409.507 441.853 401.91 458.355C409.514 470.662 419.69 482.142 433.571 487.272C434.159 473.278 436.897 459.542 439.812 445.887L439.927 445.291C441.093 439.134 441.676 432.815 445.718 427.694C453.941 418.763 465.251 423.818 470.662 409.471C469.526 408.896 470.153 406.929 471.523 407.307C476.269 408.15 477.04 399.348 473.792 397.227C470.407 395.162 473.815 391.354 472.374 388.604C471.571 387.42 469.837 387.38 469.051 386.014C466.969 380.988 477.392 377.767 465.134 372.101C462.626 371.208 459.821 371.762 457.291 371.752C453.569 372.1 450.611 374.723 447.207 375.548C450.913 385.149 441.561 394.394 433.12 386.726C428.527 391.069 423.39 400.969 434.555 396.354C440.02 392.705 444.725 387.989 451.069 385.742L451.203 385.7C453.558 384.928 463.863 379.92 463.352 384.255C459.492 387.982 453.126 387.938 448.655 390.963C442.457 393.83 438.494 400.778 431.075 400.682C429.364 411.072 441.15 404.75 445.539 401.884L446.756 401.224C452.946 397.879 459.23 394.779 466.45 394.738C468.442 394.725 468.433 397.798 466.45 397.824C457.041 397.883 449.383 403.766 441.502 408.14C440.726 414.205 449.604 411.55 452.973 410.655C456.505 410.159 462.178 406.337 465.27 408.356C466.479 411.464 461.158 411.232 459.305 412.175C467.763 416.239 460.353 418.798 458.085 412.553L457.421 412.779C451.758 414.683 438.026 418.602 439.659 409.006C437.586 409.923 435.059 410.472 432.769 409.963C427.057 418.414 417.947 415.143 431.189 409.383C428.205 407.995 427.208 402.633 430.075 400.638C419.651 400.002 427.39 389.061 431.704 385.415C431.297 385.003 430.902 384.583 430.535 384.158C428.047 385.343 425.432 386.063 422.636 386.318C419.959 386.559 419.363 382.002 422.004 381.629C424.835 381.23 427.442 380.474 429.934 379.052C433.711 377.42 435.001 384.432 438.781 384.68C440.843 385.088 442.238 383.28 442.651 381.471ZM354.893 471.946C355.806 471.946 356.617 472.328 357.28 472.934C357.943 473.54 358.228 474.449 358.267 475.318C358.285 475.783 358.188 476.218 357.978 476.622C357.842 477.039 357.609 477.399 357.28 477.706C356.666 478.316 355.757 478.694 354.893 478.694C353.98 478.694 353.169 478.312 352.505 477.706C351.843 477.096 351.558 476.191 351.518 475.318C351.501 474.857 351.598 474.422 351.808 474.018C351.93 473.643 352.131 473.31 352.41 473.027L352.505 472.934C353.12 472.319 354.028 471.946 354.893 471.946ZM382.551 451.126L382.697 451.128C383.47 451.133 384.186 451.326 384.852 451.712C385.142 451.936 385.431 452.155 385.717 452.38C386.248 452.915 386.612 453.543 386.814 454.267C387.02 455.023 387.02 455.782 386.814 456.537C386.744 456.972 386.582 457.393 386.327 457.758C385.949 458.385 385.449 458.89 384.817 459.263C384.163 459.645 383.457 459.834 382.697 459.838C381.939 459.834 381.232 459.645 380.578 459.263C379.946 458.89 379.446 458.385 379.073 457.758C378.814 457.393 378.651 456.972 378.581 456.537C378.375 455.782 378.375 455.023 378.581 454.267C378.769 453.594 379.096 453.005 379.567 452.496L379.678 452.38C380.064 451.963 380.521 451.669 381.052 451.497C381.518 451.252 382.018 451.128 382.551 451.126ZM171.472 451.361C171.797 451.273 172.117 451.273 172.442 451.361C172.925 451.383 173.376 451.528 173.794 451.791C174.04 451.984 174.285 452.173 174.531 452.362L174.745 452.619C175.203 453.177 175.215 453.273 175.566 454.123C175.712 454.597 175.733 455.071 175.628 455.545C175.628 455.865 175.545 456.164 175.386 456.441C175.299 456.743 175.15 457.007 174.926 457.226C174.768 457.494 174.557 457.709 174.289 457.867C173.947 458.179 173.544 458.394 173.079 458.504L172.135 458.631C172.012 458.614 171.885 458.596 171.762 458.583C171.614 458.578 171.47 458.562 171.329 458.534L171.187 458.503L171.057 458.469C170.885 458.419 170.718 458.352 170.555 458.267C170.248 458.179 169.98 458.025 169.752 457.797C169.357 457.542 169.041 457.2 168.813 456.774L168.752 456.634C168.668 456.484 168.598 456.331 168.545 456.164C168.396 455.901 168.322 455.62 168.317 455.317C168.23 454.914 168.236 454.514 168.34 454.115L168.379 453.982L168.716 453.178C168.892 452.907 169.076 452.63 169.313 452.406C169.455 452.279 169.804 452.007 170 451.871L170.12 451.791C170.538 451.528 170.99 451.383 171.472 451.361ZM118.566 445.083C119.198 442.594 122.463 441.808 124.24 443.586C126.017 445.365 125.232 448.63 122.744 449.263L122.459 449.333C120.054 449.943 117.886 447.77 118.496 445.365L118.566 445.083ZM419.77 424.779C419.753 424.533 420.069 424.446 420.227 424.591C422.342 426.487 423.689 428.761 426.256 430.231C428.837 431.707 431.496 431.588 434.186 432.541C435.099 432.866 435.103 434.086 434.186 434.406C429.096 436.185 420.157 430.157 419.77 424.779ZM180.582 424.393C181.149 424.217 181.719 424.191 182.286 424.318C182.672 424.318 183.031 424.415 183.36 424.608C183.724 424.709 184.036 424.893 184.304 425.156C184.625 425.346 184.879 425.605 185.072 425.925C185.45 426.338 185.704 426.821 185.835 427.374L185.984 428.511L185.835 429.648C185.69 429.985 185.546 430.328 185.405 430.666L185.013 431.198C184.695 431.622 184.644 431.626 183.874 432.198C183.383 432.51 182.852 432.681 182.286 432.703C181.908 432.809 181.53 432.809 181.149 432.703C180.767 432.703 180.407 432.607 180.074 432.414C179.714 432.313 179.398 432.128 179.13 431.865C178.665 431.562 178.301 431.162 178.033 430.666C177.888 430.328 177.744 429.985 177.603 429.648L177.449 428.511L177.603 427.374L177.611 427.339C177.813 426.627 178.174 426.008 178.691 425.486L179.543 424.827C179.876 424.612 180.223 424.503 180.582 424.393ZM385.436 425.245C386.651 424.911 387.986 425.262 388.876 426.153C389.767 427.045 390.118 428.374 389.785 429.591C389.456 430.776 388.504 431.737 387.314 432.058C386.959 432.154 386.599 432.207 386.235 432.19C385.624 432.185 385.054 432.031 384.523 431.724L383.839 431.193C383.505 430.886 383.273 430.522 383.136 430.1C382.921 429.696 382.825 429.262 382.842 428.792L382.838 428.708C382.825 428.542 382.846 428.374 382.9 428.212C382.9 428.041 382.926 427.874 382.97 427.711C383.29 426.527 384.256 425.569 385.436 425.245ZM123.38 413.357C123.771 413.343 124.135 413.422 124.473 413.602C124.828 413.716 125.131 413.909 125.386 414.19C125.667 414.445 125.86 414.752 125.974 415.103C126.154 415.442 126.233 415.806 126.219 416.196C126.219 416.71 126.088 417.189 125.833 417.628C125.684 417.821 125.535 418.014 125.386 418.203C125.035 418.558 124.618 418.8 124.135 418.936L123.854 419.032C123.442 419.182 123.038 419.19 122.608 419.134C122.156 419.072 121.739 418.949 121.37 418.668C121.01 418.457 120.725 418.172 120.515 417.812L120.273 417.241C120.221 417.049 120.199 416.759 120.185 416.556C120.185 416.526 120.185 416.5 120.181 416.469C120.181 416.297 120.234 415.881 120.277 415.709C120.374 415.349 120.571 415.007 120.795 414.717C120.989 414.415 121.252 414.177 121.577 414.001L121.606 413.979L121.638 413.958C121.739 413.887 121.844 413.817 121.95 413.742C122.388 413.488 122.867 413.357 123.38 413.357ZM349.991 410.239C350.693 410.239 351.347 410.419 351.953 410.77C351.974 410.779 351.996 410.788 352.014 410.797C352.594 411.139 353.054 411.6 353.397 412.18C353.748 412.781 353.923 413.431 353.923 414.125C353.923 414.822 353.748 415.468 353.397 416.069C353.054 416.649 352.594 417.11 352.014 417.452C351.996 417.465 351.974 417.474 351.953 417.483C351.347 417.834 350.693 418.01 349.991 418.014C349.294 418.01 348.64 417.834 348.034 417.483C346.849 416.789 346.107 415.494 346.107 414.125C346.107 412.754 346.849 411.46 348.034 410.77C348.64 410.419 349.294 410.239 349.991 410.239ZM167.75 405.163L167.87 405.16C168.335 405.142 168.769 405.239 169.168 405.454C169.585 405.59 169.949 405.823 170.257 406.152L170.898 406.687L171.084 406.838C171.114 406.864 171.144 406.89 171.174 406.916C171.604 407.35 171.898 407.86 172.065 408.448C172.118 408.786 172.161 409.12 172.197 409.458C172.293 410.336 171.775 411.236 171.205 411.859C170.898 412.189 170.533 412.421 170.112 412.561C169.708 412.773 169.27 412.869 168.804 412.851C167.852 412.768 166.948 412.566 166.264 411.828C166.184 411.74 166.109 411.648 166.031 411.556L165.482 410.924C165.065 410.503 164.775 410.006 164.618 409.436C164.574 409.133 164.534 408.834 164.495 408.536C164.455 407.636 164.894 406.793 165.482 406.152C166.026 405.559 166.947 405.196 167.75 405.163ZM145.599 395.919C150.162 395.919 150.153 403 145.599 403C141.039 403 141.048 395.919 145.599 395.919ZM375.058 385.99L375.202 385.993C375.957 385.997 376.663 386.186 377.318 386.568L378.169 387.222C378.687 387.749 379.046 388.363 379.249 389.075C379.296 389.447 379.345 389.821 379.398 390.19C379.42 390.769 379.296 391.309 379.033 391.81C378.867 392.328 378.577 392.779 378.169 393.162C377.787 393.57 377.339 393.86 376.817 394.027C376.317 394.29 375.777 394.413 375.202 394.391C374.443 394.386 373.736 394.198 373.082 393.816C372.798 393.596 372.517 393.377 372.231 393.162C371.754 392.676 371.41 392.114 371.205 391.472L371.156 391.309L371.003 390.19C370.981 389.615 371.103 389.075 371.367 388.574C371.534 388.052 371.823 387.604 372.231 387.222C372.613 386.813 373.065 386.524 373.583 386.357C374.041 386.116 374.533 385.992 375.058 385.99ZM354.502 372.735C354.91 372.721 355.288 372.805 355.644 372.99C356.007 373.108 356.323 373.314 356.591 373.599C357.158 374.052 357.504 374.956 357.504 375.689C357.504 376.422 357.158 377.327 356.591 377.779C356.222 378.143 355.788 378.398 355.288 378.538L354.502 378.644C353.739 378.679 352.962 378.28 352.418 377.779C352.308 377.678 352.203 377.577 352.093 377.48C351.598 377.024 351.382 376.343 351.351 375.689C351.338 375.343 351.413 375.018 351.571 374.715C351.672 374.399 351.847 374.13 352.093 373.898C352.203 373.801 352.308 373.701 352.418 373.599C353.011 373.051 353.704 372.774 354.502 372.735ZM484.74 349.12C487.624 345.607 485.945 343.106 481.611 343.975C474.147 344.985 467.121 349.704 460.547 353.089C453.372 356.88 445.977 360.007 438.658 363.57C441.678 365.424 443.924 368.328 445.639 371.642C449.065 369.04 453.443 367.795 457.717 367.633C465.471 360.205 478.311 358.503 484.74 349.12ZM144.063 360.785C144.845 360.789 145.577 360.973 146.264 361.34L146.41 361.421L147.349 362.15C147.806 362.572 148.126 363.072 148.315 363.647C148.605 364.2 148.736 364.802 148.714 365.443C148.736 366.084 148.605 366.681 148.315 367.234C148.126 367.813 147.806 368.309 147.349 368.731C147.091 369.069 146.757 369.332 146.358 369.526C145.984 369.679 145.616 369.837 145.243 369.995C144.826 370.127 144.343 370.145 143.891 370.166C143.071 370.162 142.308 369.956 141.596 369.543L140.675 368.832C140.232 368.419 139.915 367.932 139.731 367.366C139.47 366.867 139.337 366.334 139.337 365.766L139.341 365.61C139.341 365.575 139.341 365.535 139.346 365.495C139.398 365.083 139.455 364.67 139.511 364.258C139.657 363.652 139.933 363.12 140.346 362.673C140.451 362.462 140.591 362.291 140.772 362.15C141.351 361.571 142.035 361.176 142.825 360.951C143.238 360.899 143.65 360.841 144.063 360.785ZM347.681 349.154L347.814 349.156C348.407 349.156 348.955 349.305 349.465 349.599C349.688 349.771 349.908 349.941 350.127 350.113C350.535 350.521 350.816 351.004 350.97 351.557L351.088 352.426C351.101 352.878 351.009 353.295 350.803 353.687C350.672 354.09 350.447 354.441 350.127 354.74C349.833 355.06 349.482 355.284 349.074 355.416C348.688 355.622 348.266 355.714 347.814 355.697C347.226 355.697 346.673 355.547 346.164 355.249C345.945 355.082 345.721 354.911 345.502 354.74C345.132 354.365 344.865 353.928 344.704 353.432L344.663 353.295L344.545 352.426C344.528 351.974 344.62 351.557 344.826 351.166C344.957 350.758 345.186 350.407 345.502 350.113C345.8 349.792 346.152 349.568 346.555 349.436C346.906 349.251 347.283 349.158 347.681 349.154ZM169.713 344.399L169.866 344.401C170.739 344.405 171.551 344.625 172.306 345.064C172.631 345.314 172.956 345.565 173.28 345.819C173.881 346.42 174.294 347.132 174.527 347.953L174.698 349.234C174.724 349.902 174.584 350.521 174.281 351.096C174.088 351.698 173.754 352.215 173.28 352.654C172.846 353.124 172.328 353.458 171.727 353.651C171.152 353.954 170.533 354.095 169.866 354.068C168.993 354.068 168.181 353.848 167.426 353.409C167.102 353.159 166.777 352.905 166.448 352.654C165.851 352.048 165.438 351.337 165.206 350.521L165.035 349.234C165.008 348.572 165.149 347.949 165.451 347.373C165.644 346.776 165.978 346.254 166.448 345.819C166.887 345.345 167.404 345.011 168.005 344.818C168.536 344.538 169.104 344.401 169.713 344.399ZM332.205 332.329C332.605 332.223 333.003 332.223 333.403 332.329C334 332.354 334.557 332.534 335.075 332.864L335.984 333.567C335.996 333.579 336.01 333.593 336.023 333.61C336.572 334.163 336.953 334.818 337.164 335.568L337.322 336.749C337.344 337.36 337.217 337.93 336.94 338.457C336.775 338.964 336.503 339.404 336.128 339.785L335.984 339.927C335.575 340.366 335.097 340.678 334.539 340.858C334.189 341.065 333.807 341.166 333.403 341.166C332.806 341.301 332.205 341.276 331.608 341.086C331.253 340.933 330.893 340.783 330.533 340.635L330.419 340.568C329.063 339.827 328.225 338.273 328.225 336.749C328.225 335.226 329.063 333.667 330.419 332.925C330.459 332.908 330.493 332.886 330.533 332.864C331.051 332.534 331.608 332.354 332.205 332.329Z" fill="#BD1433" fill-opacity="0.7"/>
<path fill-rule="evenodd" clip-rule="evenodd" d="M277.469 125.193C343.519 127.285 347.503 158.671 347.503 211.305C347.503 263.94 313.239 297.108 300.623 302.899C288.006 308.691 254.785 333.567 224.804 322.104C194.824 310.64 203.506 262.207 203.506 241.397C203.506 220.587 211.418 123.101 277.469 125.193Z" fill="white"/>
<path fill-rule="evenodd" clip-rule="evenodd" d="M304.264 285.613C292.135 292.387 278.246 292.65 265.199 288.387C257.374 285.837 250.2 281.895 243.485 277.18C237.644 273.075 232.431 268.522 227.266 263.688C223.014 254.307 219.227 244.943 217.453 234.736C215.865 225.574 215.654 216.061 217.497 206.916C231.128 195.7 244.675 184.391 258.204 173.047C265.094 167.269 272.001 161.523 278.992 155.868C282.542 152.997 286.057 150.082 289.594 147.198C290.177 146.724 290.757 146.25 291.341 145.776C298.643 151.123 306.471 155.706 313.721 161.141C317.517 163.99 321.208 167.024 324.723 170.215C326.566 171.888 328.365 173.613 330.121 175.382C331.727 176.998 333.276 179.316 335.554 179.926C335.865 180.009 336.159 180.027 336.435 179.987C339.481 206.662 341.644 235.465 328.598 259.689C322.906 270.256 314.836 279.704 304.264 285.613ZM225.357 295.416C223.687 293.886 226.176 291.408 227.839 292.933C238.286 302.506 251.944 307.58 265.739 309.929C267.965 310.308 267.016 313.692 264.806 313.315C250.403 310.863 236.247 305.395 225.357 295.416ZM212.822 310.104C210.827 309.034 212.603 306.004 214.593 307.072C222.732 311.438 231.659 313.707 240.714 315.239C242.942 315.616 241.991 319 239.781 318.626C230.419 317.042 221.232 314.616 212.822 310.104ZM245.947 162.147C252.701 156.083 259.959 150.314 267.626 145.446C275.384 140.521 283.858 137.575 293.017 137.505C292.376 138.018 291.766 138.589 291.147 139.12C289.419 140.6 287.694 142.088 285.969 143.572C282.52 146.544 279.062 149.511 275.656 152.532C268.951 158.485 262.224 164.407 255.531 170.373C242.669 181.84 230.084 193.557 217.769 205.612C217.836 205.318 217.906 205.024 217.976 204.73C222.052 187.696 233.142 173.644 245.947 162.147ZM298.888 138.247C298.932 138.115 298.963 137.987 298.981 137.865C316.556 140.156 331.235 153.093 336.089 170.127C335.667 170.716 335.435 171.414 335.522 172.155C335.566 172.529 335.61 172.906 335.654 173.279C335.053 172.683 334.434 172.125 333.908 171.594C332.157 169.82 330.362 168.094 328.519 166.413C324.749 162.976 320.835 159.762 316.71 156.764C309.535 151.549 301.767 146.755 293.214 144.252C293.776 143.791 294.338 143.33 294.904 142.874C296.593 141.499 298.16 140.367 298.888 138.247ZM330.397 120.032C319.606 108.236 304.663 99.5962 288.927 96.5934C273.901 93.7223 258.344 95.6144 244.148 101.194C214.443 112.872 191.005 138.55 180.029 168.305C173.631 185.642 171.534 204.647 173.456 222.997C175.369 241.264 180.868 260.128 190.873 275.669C191.79 277.092 192.795 278.457 193.848 279.778C193.379 285.143 191.588 290.402 188.771 294.977C188.62 295.222 188.46 295.463 188.302 295.704C185.417 297.865 182.425 299.893 179.503 301.987C176.972 303.801 174.466 305.662 172.085 307.671C169.838 309.568 167.228 311.68 165.707 314.241C164.46 316.338 163.951 319.189 165.653 321.189C167.703 323.599 171.178 322.749 173.956 322.749C174.194 322.749 174.431 322.754 174.669 322.757C175.503 323.282 176.362 323.756 177.195 324.197C185.607 328.658 194.05 333.07 202.502 337.46C219.337 346.209 236.1 355.31 253.28 363.366C261.241 367.102 269.763 370.367 278.68 370.355C287.045 370.342 294.605 367.018 301.135 361.965C308.578 356.209 314.801 348.9 320.839 341.736C323.253 338.869 325.618 335.967 327.939 333.026C332.398 331.538 336.821 331.103 340.797 333.974C343.988 336.279 348.192 333.144 348.266 329.685C348.293 328.456 348.24 327.244 348.108 326.05C347.31 318.674 343.702 312.002 339.639 305.812C337.419 302.427 335.08 299.103 332.727 295.811C332.174 295.034 331.63 294.257 331.103 293.466C340.552 279.55 348.047 264.119 352.655 247.994C357.495 231.027 359.141 213.431 358.062 195.849C356.402 168.903 349.013 140.385 330.397 120.032Z" fill="#BD1433" fill-opacity="0.7"/>
<path fill-rule="evenodd" clip-rule="evenodd" d="M308.082 266.109C304.849 267.046 301.379 267.129 298.084 266.162C295.095 265.285 292.026 263.354 289.826 260.798C287.872 258.528 286.607 255.77 286.656 252.825C286.662 252.489 286.782 252.208 286.967 251.991C287.166 251.756 287.444 251.595 287.742 251.525C288.048 251.453 288.372 251.479 288.648 251.604C288.897 251.717 289.111 251.91 289.245 252.192C289.583 252.636 289.92 253.074 290.258 253.499C292.976 256.857 295.608 259.366 299.696 260.266C301.913 260.754 304.128 260.538 306.16 259.793C308.336 258.995 310.302 257.592 311.843 255.798C312.539 254.987 313.362 254.656 314.166 254.65C315.077 254.644 315.977 255.067 316.656 255.744C317.322 256.409 317.769 257.314 317.809 258.259C317.845 259.089 317.574 259.957 316.854 260.73C314.482 263.278 311.408 265.145 308.082 266.109ZM307.982 224.056C311.296 226.071 316.345 230.769 312.78 235.765C308.584 240.17 302.542 235.119 299.565 232.835C296.804 231.065 293.703 235.618 296.264 237.685C317.777 253.619 326.508 224.582 309.658 221.686C307.803 221.367 307.114 223.432 307.982 224.056ZM276.983 215.189C275.918 214.507 274.665 214.274 273.276 214.906C272.191 215.399 270.288 217.045 268.963 219.208C268.057 220.688 267.415 222.424 267.549 224.233C267.58 224.653 267.425 224.963 267.18 225.191C266.987 225.372 266.707 225.505 266.38 225.547C266.101 225.582 265.79 225.55 265.536 225.471C265.054 225.321 264.799 225.008 264.703 224.753C263.776 222.289 264.175 219.539 265.215 217.059C266.617 213.711 269.165 210.908 270.833 210.004C273.689 208.456 277.058 208.385 279.918 209.961C282.353 211.303 283.875 213.469 285.389 215.678C285.711 216.147 286.03 216.613 286.36 217.071C287.022 217.988 287.088 218.898 286.831 219.678C286.548 220.542 285.824 221.272 284.919 221.653C284.082 222.006 283.111 222.056 282.252 221.693C281.527 221.387 280.861 220.79 280.439 219.777C279.729 218.072 278.547 216.19 276.983 215.189ZM331.076 218.984C330.347 219.364 329.776 219.479 328.967 219.236C328.52 219.102 328.077 218.844 327.731 218.498C327.388 218.154 327.14 217.727 327.044 217.254C326.807 216.085 326.168 214.991 325.257 214.278C324.479 213.668 323.496 213.345 322.406 213.527C321.23 213.724 320.109 214.478 319.337 215.368C319.079 215.666 318.877 216.004 318.674 216.34C318.293 216.968 317.924 217.552 317.399 218.013C317.2 218.189 316.901 218.31 316.611 218.31C316.493 218.31 316.373 218.291 316.259 218.255C315.088 217.08 314.863 216.188 314.901 215.304C314.94 214.376 315.306 213.437 315.897 212.561C317.282 210.505 319.913 208.82 321.689 208.438C324.12 207.916 326.535 208.543 328.47 209.902C330.462 211.299 331.939 213.47 332.399 215.915C332.509 216.505 332.462 217.14 332.238 217.692C332.019 218.23 331.637 218.692 331.076 218.984ZM282.345 193.275C280.886 194.697 279.159 194.917 277.412 195.113C276.441 195.223 275.666 195.312 274.904 195.484C272.807 195.957 270.736 196.67 268.845 197.697C266.869 198.77 264.716 200.064 263.167 201.722C262.799 202.117 262.451 202.531 262.104 202.946C261.787 203.324 261.481 203.689 261.159 204.04C260.789 204.443 260.438 204.866 260.089 205.288C259.873 205.644 259.831 205.731 259.787 205.822C259.722 205.959 259.646 206.112 259.559 206.277C259.44 206.502 259.3 206.748 259.154 206.972C258.911 207.38 258.781 207.492 258.668 207.543C258.481 207.626 258.304 207.667 258.132 207.645C257.97 207.624 257.818 207.547 257.668 207.42C256.919 206.787 256.698 205.747 256.721 204.644C256.755 202.971 257.373 201.117 257.941 199.978C259.264 197.331 261.099 194.579 263.305 192.604C265.822 190.348 268.576 188.641 271.739 187.465C273.705 186.733 275.981 186.062 278.122 186.147C279.664 186.208 281.135 186.666 282.35 187.811C283.097 188.514 283.455 189.513 283.455 190.512C283.455 191.531 283.083 192.556 282.345 193.275ZM334.044 206.298C333.951 206.45 333.823 206.555 333.68 206.618C333.53 206.684 333.363 206.703 333.202 206.676C333.042 206.649 332.89 206.576 332.77 206.466C332.654 206.36 332.567 206.219 332.527 206.046C331.559 201.79 329.677 198.623 325.663 196.581C323.688 195.576 321.417 194.938 319.267 194.429C318.642 194.281 317.982 194.185 317.317 194.088C315.234 193.784 313.135 193.435 311.777 191.751C310.958 190.736 310.615 189.438 310.809 188.251C310.992 187.133 311.645 186.108 312.831 185.494C315.786 183.966 319.457 185.466 322.441 186.743C322.662 186.838 322.879 186.931 323.092 187.021C326.01 188.253 328.671 189.879 330.858 192.205C332.594 194.05 334.202 196.777 334.849 199.583C335.388 201.918 335.262 204.301 334.044 206.298Z" fill="#BD1433" fill-opacity="0.7"/>
<path fill-rule="evenodd" clip-rule="evenodd" d="M338.775 231.531C332.189 234.704 323.001 230.024 318.573 225.121C316.961 223.336 315.717 218.229 316.337 214.99C318.017 206.219 324.327 200.954 330.989 199.156C340.224 196.664 349.518 202.978 348.434 210.43C347.407 217.492 345.85 227.737 338.775 231.531ZM293.948 214.681C293.42 224.24 285.746 232.607 276.574 235.086C261.797 239.211 254.494 228.82 251.186 217.624C250.857 216.512 250.084 213.117 252.158 210.204C260.313 198.748 280.154 200.701 290.064 203.846C292.964 206.621 294.15 210.626 293.948 214.681ZM345.931 198.193C345.927 198.199 345.921 198.204 345.917 198.209C345.883 198.189 345.85 198.168 345.815 198.147C345.853 198.163 345.894 198.177 345.931 198.193ZM358.295 199.298C357.436 189.565 326.91 193.292 323.341 194.09C313.6 196.956 305.187 204.752 294.297 201.325C283.013 188.742 245.015 192.35 237.049 198.76C235.541 198.168 233.708 198.486 231.765 199.044C221.789 198.684 176.244 202.124 185.56 214.862C186.974 215.843 188.386 214.845 188.426 212.824C236.989 195.287 232.281 211.713 238.04 209.795C238.92 210.048 239.837 210.208 240.64 210.377C245.098 211.812 246.611 211.368 247.198 216.374C251.233 255.029 302.689 241.688 298.468 209.981C302.647 209.751 306.302 207.943 310.721 209.708C313.788 239.577 337.815 240.783 345.046 230.429C350.498 223.242 348.336 212.397 355.831 206.743C358.79 209.22 358.98 200.86 358.295 199.298Z" fill="#BD1433" fill-opacity="0.7"/>
</svg>
