<svg width="1440" height="1024" viewBox="0 0 1440 1024" fill="none" xmlns="http://www.w3.org/2000/svg">
<g clip-path="url(#clip0)">
<rect width="1440" height="1024" fill="white"/>
<path d="M-2209.6 -561.482C-1864.2 -825.114 110.56 154.266 398.304 531.256C686.048 908.246 47.3017 1298.18 -298.098 1561.81C-643.498 1825.44 -286.624 907.173 -574.368 530.183C-862.112 153.193 -2555 -297.849 -2209.6 -561.482Z" fill="#FCACBA" fill-opacity="0.7"/>
<path d="M-2256.6 -713.482C-1911.2 -977.114 63.5603 2.26649 351.304 379.256C639.048 756.246 0.301726 1146.18 -345.098 1409.81C-690.498 1673.44 -333.624 755.173 -621.368 378.183C-909.112 1.19305 -2602 -449.849 -2256.6 -713.482Z" fill="#FFA6B6" fill-opacity="0.7"/>
<path d="M-2198.53 -383.325C-1857.13 -652.122 132.129 297.452 425.51 670.072C718.89 1042.69 86.0797 1442.18 -255.317 1710.98C-596.713 1979.78 -253.689 1056.25 -547.069 683.626C-840.45 311.006 -2539.93 -114.528 -2198.53 -383.325Z" fill="#FFC7D1" fill-opacity="0.7"/>
<path d="M-2239.55 -291.723C-1898.16 -560.52 91.1064 389.054 384.487 761.674C677.868 1134.29 45.057 1533.79 -296.339 1802.58C-637.736 2071.38 -294.711 1147.85 -588.092 775.227C-881.473 402.607 -2580.95 -22.9265 -2239.55 -291.723Z" fill="#FFC6D0" fill-opacity="0.7"/>
<path d="M-2073.64 2135.22C-2206.26 1690.53 -609.783 127.252 -155.308 -8.2869C299.167 -143.826 451.993 640.094 584.612 1084.78C717.231 1529.46 -31.3987 815.692 -485.873 951.231C-940.348 1086.77 -1941.02 2579.9 -2073.64 2135.22Z" fill="#FFD3AF" fill-opacity="0.6"/>
<path d="M1721.31 187.885C1860.43 289.101 1336.3 1589.67 1163.45 1827.27C990.591 2064.86 780.548 1852.61 641.424 1751.39C502.3 1650.18 229.899 1029.51 509.667 776.241C682.524 538.645 1582.18 86.6688 1721.31 187.885Z" fill="#FF8CA1" fill-opacity="0.55"/>
<path d="M1810.99 311.159C1940.56 424.352 1302.8 1673.13 1109.48 1894.4C916.174 2115.68 725.849 1885.58 596.282 1772.38C466.715 1659.19 250.618 1016.75 551.811 789.377C745.122 568.103 1681.43 197.966 1810.99 311.159Z" fill="#FF8CA1" fill-opacity="0.55"/>
<path d="M1818.16 421.482C1947.73 534.675 1309.97 1783.45 1116.65 2004.73C923.344 2226 733.019 1995.9 603.452 1882.71C473.885 1769.51 257.788 1127.08 558.981 899.7C752.292 678.426 1688.6 308.289 1818.16 421.482Z" fill="#FF8CA1" fill-opacity="0.55"/>
<path d="M1811.16 538.482C1940.73 651.675 1302.97 1900.45 1109.65 2121.73C916.344 2343 726.019 2112.9 596.452 1999.71C466.885 1886.51 250.788 1244.08 551.981 1016.7C745.292 795.426 1681.6 425.289 1811.16 538.482Z" fill="#FF8CA1" fill-opacity="0.55"/>
<path d="M1804.16 655.482C1933.73 768.675 1295.97 2017.45 1102.65 2238.73C909.344 2460 719.019 2229.9 589.452 2116.71C459.885 2003.51 243.788 1361.08 544.981 1133.7C738.292 912.426 1674.6 542.289 1804.16 655.482Z" fill="#FF8CA1" fill-opacity="0.55"/>
<path d="M1797.16 772.482C1926.73 885.675 1288.97 2134.45 1095.65 2355.73C902.344 2577 712.019 2346.9 582.452 2233.71C452.885 2120.51 236.788 1478.08 537.981 1250.7C731.292 1029.43 1667.6 659.289 1797.16 772.482Z" fill="#FF8CA1" fill-opacity="0.55"/>
<path d="M1790.16 889.482C1919.73 1002.67 1281.97 2251.45 1088.65 2472.73C895.344 2694 705.019 2463.9 575.452 2350.71C445.885 2237.51 229.788 1595.08 530.981 1367.7C724.292 1146.43 1660.6 776.289 1790.16 889.482Z" fill="#FF8CA1" fill-opacity="0.55"/>
</g>
<defs>
<clipPath id="clip0">
<rect width="1440" height="1024" fill="white"/>
</clipPath>
</defs>
</svg>
